<svg width="274" height="799" viewBox="0 0 274 799" fill="none" xmlns="http://www.w3.org/2000/svg">
<g clip-path="url(#clip0)">
<path d="M150.454 76.5155H139.216C137.348 76.5155 135.872 75.9296 134.786 74.7577C133.7 73.5936 133.157 71.9999 133.157 69.9764C133.157 67.9843 133.684 66.4022 134.739 65.2303C135.794 64.0585 137.243 63.4608 139.087 63.4374H150.454V66.953H139.192C138.075 66.953 137.258 67.2186 136.743 67.7499C136.235 68.2889 135.981 69.0311 135.981 69.9764C135.981 71.953 137.02 72.9569 139.098 72.9882H150.454V76.5155ZM136.895 86.0428C137.309 86.0428 137.633 85.8358 137.868 85.4218C138.11 85.0155 138.325 84.3593 138.512 83.453C139.145 80.4374 140.426 78.9296 142.356 78.9296C143.481 78.9296 144.419 79.3944 145.169 80.3241C145.926 81.2616 146.305 82.4843 146.305 83.9921C146.305 85.6014 145.926 86.8866 145.169 87.8475C144.411 88.8163 143.426 89.3007 142.216 89.3007V85.9139C142.7 85.9139 143.098 85.7577 143.411 85.4452C143.731 85.1327 143.891 84.6444 143.891 83.9803C143.891 83.41 143.762 82.9686 143.505 82.6561C143.247 82.3436 142.919 82.1874 142.52 82.1874C142.145 82.1874 141.841 82.3632 141.606 82.7147C141.38 83.0741 141.18 83.6757 141.008 84.5194C140.844 85.3632 140.657 86.0741 140.446 86.6522C139.79 88.4413 138.653 89.3358 137.036 89.3358C135.88 89.3358 134.942 88.8397 134.223 87.8475C133.512 86.8553 133.157 85.5741 133.157 84.0038C133.157 82.9413 133.344 81.996 133.719 81.1678C134.102 80.3475 134.622 79.703 135.278 79.2343C135.942 78.7655 136.657 78.5311 137.423 78.5311V81.7421C136.821 81.7733 136.36 81.996 136.04 82.41C135.719 82.8241 135.559 83.3788 135.559 84.0741C135.559 84.7225 135.68 85.2108 135.923 85.5389C136.173 85.8749 136.497 86.0428 136.895 86.0428ZM133.157 97.3632C133.157 95.5038 133.727 93.9882 134.868 92.8163C136.008 91.6522 137.528 91.0702 139.426 91.0702H139.755C141.028 91.0702 142.165 91.3163 143.165 91.8085C144.173 92.3007 144.946 92.996 145.485 93.8944C146.032 94.8007 146.305 95.8319 146.305 96.9882C146.305 98.7225 145.758 100.086 144.665 101.078C143.571 102.078 142.02 102.578 140.012 102.578H138.63V94.5038C137.801 94.6132 137.137 94.9413 136.637 95.4882C136.137 96.0428 135.887 96.7421 135.887 97.5858C135.887 98.8905 136.36 99.91 137.305 100.644L135.442 102.308C134.723 101.801 134.161 101.113 133.755 100.246C133.356 99.3788 133.157 98.4178 133.157 97.3632ZM143.563 96.9764C143.563 96.3046 143.337 95.7577 142.883 95.3358C142.43 94.9218 141.782 94.6561 140.938 94.5389V99.2499H141.208C141.958 99.2343 142.536 99.0311 142.942 98.6405C143.356 98.2499 143.563 97.6952 143.563 96.9764ZM142.895 111.637C142.958 111.176 142.989 110.769 142.989 110.418C142.989 109.137 142.555 108.297 141.688 107.898H133.391V104.512H146.071V107.711L144.559 107.805C145.723 108.484 146.305 109.426 146.305 110.629C146.305 111.004 146.255 111.355 146.153 111.683L142.895 111.637Z" fill="white"/>
<ellipse cx="155.391" cy="37.525" rx="5.51192" ry="6" transform="rotate(90 155.391 37.525)" stroke="white" stroke-width="3"/>
<path fill-rule="evenodd" clip-rule="evenodd" d="M142.391 37.3579C142.384 31.0362 136.55 26.008 130.076 26C129.698 26 129.391 26.2991 129.391 26.6681V47.3796C129.39 47.5571 129.462 47.7276 129.59 47.8532C129.719 47.9787 129.894 48.0487 130.076 48.0477C136.55 48.0396 142.384 43.6796 142.391 37.3579Z" stroke="white" stroke-width="3"/>
<path d="M136.953 126.077L136.953 149.706L146.252 143.05" stroke="white" stroke-width="4"/>
<path d="M136.953 312.48L136.953 336.109L146.252 329.453" stroke="white" stroke-width="4"/>
<path d="M137 563.554L136.808 590.135" stroke="white" stroke-width="4"/>
<path d="M146.095 187.237L146.205 187.215C147.842 186.725 149.276 185.729 150.296 184.374C151.171 183.32 151.667 182.008 151.707 180.645C151.765 179.772 151.096 179.017 150.211 178.959C149.326 178.902 148.561 179.563 148.503 180.436C148.5 181.111 148.276 181.768 147.863 182.307L147.847 182.325C147.259 183.146 146.433 183.772 145.478 184.122C141.562 184.92 137.523 184.926 133.604 184.137L133.404 184.099C133.316 184.089 133.232 184.077 133.15 184.065C129.613 183.538 128.202 180.916 128.917 176.199C129.099 174.491 129.99 172.933 131.379 171.897L131.499 171.808L131.476 171.826C132.167 171.39 134.596 171.145 138.764 171.09H138.789C142.94 170.966 145.757 171.225 147.267 171.85C148.158 172.381 148.846 173.745 149.323 175.96L149.337 176.015L149.325 175.96C149.443 176.514 149.852 176.963 150.398 177.138C150.943 177.314 151.541 177.189 151.968 176.811C152.394 176.432 152.584 175.858 152.465 175.305L152.453 175.255C151.764 172.086 150.544 170.015 148.794 169.04L148.658 168.972C146.722 168.132 143.403 167.781 138.703 167.921C133.936 167.986 130.95 168.397 129.746 169.155C129.681 169.196 129.625 169.24 129.565 169.284C127.448 170.79 126.065 173.102 125.75 175.659L125.743 175.7C124.701 182.523 127.01 186.356 132.67 187.199C132.757 187.211 132.844 187.223 132.932 187.234C137.275 188.109 141.752 188.11 146.095 187.237Z" fill="white"/>
<path d="M142.664 179.366L142.728 179.371C142.967 179.383 143.174 179.39 143.348 179.391H143.357C144.544 179.394 145.295 179.378 145.611 179.342C145.675 179.337 145.733 179.327 145.787 179.317C146.313 179.218 146.744 178.857 146.919 178.37C147.093 177.882 146.983 177.343 146.631 176.954C146.28 176.565 145.739 176.386 145.213 176.485C145.234 176.481 145.252 176.478 145.268 176.476H145.265C145.068 176.498 144.435 176.508 143.367 176.506C143.244 176.506 143.087 176.501 142.902 176.491C142.24 176.43 141.8 176.396 141.601 176.392C141.361 176.384 141.122 176.426 140.9 176.515C140.14 176.834 139.794 177.685 140.126 178.415C140.458 179.145 141.343 179.478 142.102 179.158C141.93 179.235 141.744 179.275 141.555 179.275C141.68 179.278 142.05 179.308 142.664 179.366Z" fill="white"/>
<path d="M154.566 183.972C155.279 184.567 156.384 184.523 157.037 183.874C158.098 182.816 158.75 180.949 158.995 178.274L159 178.163C158.995 176.183 158.562 174.223 157.725 172.397C157.367 171.578 156.35 171.179 155.453 171.505C154.556 171.831 154.119 172.76 154.476 173.578C155.136 175.007 155.484 176.539 155.499 178.09C155.526 179.364 155.166 180.62 154.459 181.719C153.807 182.368 153.856 183.377 154.566 183.972Z" fill="white"/>
<path d="M159.022 171.163L158.914 171.069C159.624 172.145 160.098 173.355 160.304 174.623L160.319 174.675C160.665 176.118 160.836 177.597 160.829 179.08C160.544 182.272 159.762 184.481 158.483 185.709C157.854 186.308 157.837 187.295 158.444 187.915C159.051 188.535 160.053 188.552 160.681 187.953C162.541 186.176 163.644 183.281 163.99 179.267L164 179.096C164.007 177.319 163.793 175.548 163.364 173.822C163.048 172.003 162.279 170.291 161.128 168.837C160.827 168.547 160.423 168.387 160.003 168.391C159.582 168.396 159.181 168.565 158.888 168.861C158.594 169.168 158.437 169.576 158.449 169.998C158.462 170.419 158.644 170.818 158.955 171.107C158.981 171.127 159.002 171.143 159.022 171.163Z" fill="white"/>
<path d="M140.364 213.168V206.418H133.391V202.903H150.454V214.012H147.606V206.418H143.2V213.168H140.364ZM142.895 222.649C142.958 222.188 142.989 221.782 142.989 221.43C142.989 220.149 142.555 219.309 141.688 218.911H133.391V215.524H146.071V218.723L144.559 218.817C145.723 219.496 146.305 220.438 146.305 221.641C146.305 222.016 146.255 222.368 146.153 222.696L142.895 222.649ZM139.848 223.34C141.106 223.34 142.227 223.582 143.212 224.067C144.196 224.551 144.958 225.246 145.497 226.153C146.036 227.067 146.305 228.125 146.305 229.328C146.305 231.039 145.782 232.434 144.735 233.512C143.688 234.598 142.266 235.203 140.469 235.328L139.602 235.352C137.657 235.352 136.094 234.809 134.915 233.723C133.743 232.637 133.157 231.18 133.157 229.352C133.157 227.524 133.743 226.063 134.915 224.969C136.087 223.883 137.68 223.34 139.696 223.34H139.848ZM139.602 226.727C138.399 226.727 137.477 226.953 136.837 227.407C136.204 227.86 135.887 228.508 135.887 229.352C135.887 230.172 136.2 230.813 136.825 231.274C137.458 231.735 138.466 231.965 139.848 231.965C141.028 231.965 141.942 231.735 142.591 231.274C143.239 230.813 143.563 230.164 143.563 229.328C143.563 228.5 143.239 227.86 142.591 227.407C141.95 226.953 140.954 226.727 139.602 226.727ZM146.071 240.555L144.606 240.661C145.739 241.567 146.305 242.782 146.305 244.305C146.305 245.649 145.911 246.649 145.122 247.305C144.333 247.961 143.153 248.297 141.583 248.313H133.391V244.926H141.501C142.219 244.926 142.739 244.77 143.059 244.457C143.387 244.145 143.551 243.625 143.551 242.899C143.551 241.946 143.145 241.231 142.333 240.754H133.391V237.368H146.071V240.555ZM149.188 254.946H146.071V257.114H143.587V254.946H137.258C136.79 254.946 136.454 255.036 136.251 255.215C136.048 255.395 135.946 255.739 135.946 256.246C135.946 256.621 135.973 256.953 136.028 257.243H133.462C133.258 256.578 133.157 255.895 133.157 255.192C133.157 252.817 134.356 251.606 136.755 251.559H143.587V249.707H146.071V251.559H149.188V254.946ZM133.157 264.836C133.157 262.977 133.727 261.461 134.868 260.289C136.008 259.125 137.528 258.543 139.426 258.543H139.755C141.028 258.543 142.165 258.789 143.165 259.282C144.173 259.774 144.946 260.469 145.485 261.368C146.032 262.274 146.305 263.305 146.305 264.461C146.305 266.196 145.758 267.559 144.665 268.551C143.571 269.551 142.02 270.051 140.012 270.051H138.63V261.977C137.801 262.086 137.137 262.414 136.637 262.961C136.137 263.516 135.887 264.215 135.887 265.059C135.887 266.364 136.36 267.383 137.305 268.118L135.442 269.782C134.723 269.274 134.161 268.586 133.755 267.719C133.356 266.852 133.157 265.891 133.157 264.836ZM143.563 264.45C143.563 263.778 143.337 263.231 142.883 262.809C142.43 262.395 141.782 262.129 140.938 262.012V266.723H141.208C141.958 266.707 142.536 266.504 142.942 266.114C143.356 265.723 143.563 265.168 143.563 264.45ZM146.071 275.102L144.606 275.207C145.739 276.114 146.305 277.328 146.305 278.852C146.305 280.196 145.911 281.196 145.122 281.852C144.333 282.508 143.153 282.844 141.583 282.86H133.391V279.473H141.501C142.219 279.473 142.739 279.317 143.059 279.004C143.387 278.692 143.551 278.172 143.551 277.446C143.551 276.493 143.145 275.778 142.333 275.301H133.391V271.914H146.071V275.102ZM139.825 284.911C141.801 284.911 143.376 285.352 144.548 286.235C145.719 287.125 146.305 288.34 146.305 289.879C146.305 291.114 145.844 292.133 144.923 292.938H151.391V296.336H133.391V293.278L134.739 293.114C133.684 292.27 133.157 291.184 133.157 289.856C133.157 288.364 133.743 287.164 134.915 286.258C136.094 285.36 137.731 284.911 139.825 284.911ZM139.579 288.297C138.391 288.297 137.481 288.504 136.848 288.918C136.216 289.332 135.899 289.934 135.899 290.723C135.899 291.77 136.341 292.508 137.223 292.938H142.227C143.11 292.516 143.551 291.786 143.551 290.746C143.551 289.114 142.227 288.297 139.579 288.297Z" fill="white"/>
<path d="M147.606 387.117V381.89H133.391V378.375H147.606V373.219H150.454V387.117H147.606ZM139.848 385.945C141.106 385.945 142.227 386.187 143.212 386.672C144.196 387.156 144.958 387.851 145.497 388.758C146.036 389.672 146.305 390.73 146.305 391.933C146.305 393.644 145.782 395.039 144.735 396.117C143.688 397.203 142.266 397.808 140.469 397.933L139.602 397.957C137.657 397.957 136.094 397.414 134.915 396.328C133.743 395.242 133.157 393.785 133.157 391.957C133.157 390.129 133.743 388.668 134.915 387.574C136.087 386.488 137.68 385.945 139.696 385.945H139.848ZM139.602 389.332C138.399 389.332 137.477 389.558 136.837 390.011C136.204 390.465 135.887 391.113 135.887 391.957C135.887 392.777 136.2 393.418 136.825 393.879C137.458 394.34 138.466 394.57 139.848 394.57C141.028 394.57 141.942 394.34 142.591 393.879C143.239 393.418 143.563 392.769 143.563 391.933C143.563 391.105 143.239 390.465 142.591 390.011C141.95 389.558 140.954 389.332 139.602 389.332ZM138.477 404.648L137.258 403.429H133.391V400.043H151.391V403.429H141.419L142.262 404.086L146.071 407.332V411.398L140.786 406.816L133.391 411.797V407.906L138.477 404.648ZM133.157 418.465C133.157 416.605 133.727 415.09 134.868 413.918C136.008 412.754 137.528 412.172 139.426 412.172H139.755C141.028 412.172 142.165 412.418 143.165 412.91C144.173 413.402 144.946 414.097 145.485 414.996C146.032 415.902 146.305 416.933 146.305 418.09C146.305 419.824 145.758 421.187 144.665 422.179C143.571 423.179 142.02 423.679 140.012 423.679H138.63V415.605C137.801 415.715 137.137 416.043 136.637 416.59C136.137 417.144 135.887 417.844 135.887 418.687C135.887 419.992 136.36 421.011 137.305 421.746L135.442 423.41C134.723 422.902 134.161 422.215 133.755 421.347C133.356 420.48 133.157 419.519 133.157 418.465ZM143.563 418.078C143.563 417.406 143.337 416.859 142.883 416.437C142.43 416.023 141.782 415.758 140.938 415.64V420.351H141.208C141.958 420.336 142.536 420.133 142.942 419.742C143.356 419.351 143.563 418.797 143.563 418.078ZM146.071 428.73L144.606 428.836C145.739 429.742 146.305 430.957 146.305 432.48C146.305 433.824 145.911 434.824 145.122 435.48C144.333 436.136 143.153 436.472 141.583 436.488H133.391V433.101H141.501C142.219 433.101 142.739 432.945 143.059 432.633C143.387 432.32 143.551 431.801 143.551 431.074C143.551 430.121 143.145 429.406 142.333 428.929H133.391V425.543H146.071V428.73ZM142.895 452.168C142.958 451.707 142.989 451.301 142.989 450.949C142.989 449.668 142.555 448.828 141.688 448.429H133.391V445.043H146.071V448.242L144.559 448.336C145.723 449.015 146.305 449.957 146.305 451.16C146.305 451.535 146.255 451.886 146.153 452.215L142.895 452.168ZM133.157 459.41C133.157 457.551 133.727 456.035 134.868 454.863C136.008 453.699 137.528 453.117 139.426 453.117H139.755C141.028 453.117 142.165 453.363 143.165 453.855C144.173 454.347 144.946 455.043 145.485 455.941C146.032 456.847 146.305 457.879 146.305 459.035C146.305 460.769 145.758 462.133 144.665 463.125C143.571 464.125 142.02 464.625 140.012 464.625H138.63V456.551C137.801 456.66 137.137 456.988 136.637 457.535C136.137 458.09 135.887 458.789 135.887 459.633C135.887 460.937 136.36 461.957 137.305 462.691L135.442 464.355C134.723 463.847 134.161 463.16 133.755 462.293C133.356 461.426 133.157 460.465 133.157 459.41ZM143.563 459.023C143.563 458.351 143.337 457.804 142.883 457.383C142.43 456.969 141.782 456.703 140.938 456.586V461.297H141.208C141.958 461.281 142.536 461.078 142.942 460.687C143.356 460.297 143.563 459.742 143.563 459.023ZM139.825 466.066C141.77 466.066 143.337 466.527 144.524 467.449C145.712 468.379 146.305 469.629 146.305 471.199C146.305 472.59 145.829 473.672 144.876 474.445L146.071 474.586V477.656H133.813C132.704 477.656 131.739 477.402 130.919 476.894C130.098 476.394 129.473 475.687 129.044 474.773C128.614 473.859 128.399 472.789 128.399 471.562C128.399 470.633 128.587 469.726 128.962 468.844C129.329 467.961 129.805 467.293 130.391 466.84L132.454 468.34C131.508 469.183 131.036 470.207 131.036 471.41C131.036 472.308 131.278 473.008 131.762 473.508C132.239 474.008 132.919 474.258 133.801 474.258H134.481C133.598 473.476 133.157 472.449 133.157 471.176C133.157 469.652 133.751 468.418 134.938 467.472C136.133 466.535 137.716 466.066 139.684 466.066H139.825ZM139.579 469.453C138.43 469.453 137.528 469.683 136.872 470.144C136.223 470.605 135.899 471.238 135.899 472.043C135.899 473.074 136.286 473.812 137.059 474.258H142.391C143.165 473.804 143.551 473.074 143.551 472.066C143.551 471.254 143.219 470.613 142.555 470.144C141.891 469.683 140.899 469.453 139.579 469.453ZM133.391 483.844V480.445H146.071V483.844H133.391ZM149.352 480.246C149.86 480.246 150.278 480.414 150.606 480.75C150.934 481.094 151.098 481.558 151.098 482.144C151.098 482.722 150.934 483.183 150.606 483.527C150.278 483.871 149.86 484.043 149.352 484.043C148.837 484.043 148.415 483.867 148.087 483.515C147.758 483.172 147.594 482.715 147.594 482.144C147.594 481.574 147.758 481.113 148.087 480.761C148.415 480.418 148.837 480.246 149.352 480.246ZM136.895 493.511C137.309 493.511 137.633 493.304 137.868 492.89C138.11 492.484 138.325 491.828 138.512 490.922C139.145 487.906 140.426 486.398 142.356 486.398C143.481 486.398 144.419 486.863 145.169 487.793C145.926 488.73 146.305 489.953 146.305 491.461C146.305 493.07 145.926 494.355 145.169 495.316C144.411 496.285 143.426 496.769 142.216 496.769V493.383C142.7 493.383 143.098 493.226 143.411 492.914C143.731 492.601 143.891 492.113 143.891 491.449C143.891 490.879 143.762 490.437 143.505 490.125C143.247 489.812 142.919 489.656 142.52 489.656C142.145 489.656 141.841 489.832 141.606 490.183C141.38 490.543 141.18 491.144 141.008 491.988C140.844 492.832 140.657 493.543 140.446 494.121C139.79 495.91 138.653 496.804 137.036 496.804C135.88 496.804 134.942 496.308 134.223 495.316C133.512 494.324 133.157 493.043 133.157 491.472C133.157 490.41 133.344 489.465 133.719 488.636C134.102 487.816 134.622 487.172 135.278 486.703C135.942 486.234 136.657 486 137.423 486V489.211C136.821 489.242 136.36 489.465 136.04 489.879C135.719 490.293 135.559 490.847 135.559 491.543C135.559 492.191 135.68 492.679 135.923 493.008C136.173 493.344 136.497 493.511 136.895 493.511ZM149.188 503.051H146.071V505.219H143.587V503.051H137.258C136.79 503.051 136.454 503.14 136.251 503.32C136.048 503.5 135.946 503.844 135.946 504.351C135.946 504.726 135.973 505.058 136.028 505.347H133.462C133.258 504.683 133.157 504 133.157 503.297C133.157 500.922 134.356 499.711 136.755 499.664H143.587V497.812H146.071V499.664H149.188V503.051ZM142.895 514.23C142.958 513.769 142.989 513.363 142.989 513.011C142.989 511.73 142.555 510.89 141.688 510.492H133.391V507.105H146.071V510.304L144.559 510.398C145.723 511.078 146.305 512.019 146.305 513.222C146.305 513.597 146.255 513.949 146.153 514.277L142.895 514.23ZM138.184 520.816L146.071 523.16V526.793L131.423 521.695L130.755 521.414C129.098 520.656 128.27 519.406 128.27 517.664C128.27 517.172 128.344 516.672 128.493 516.164H131.059L131.048 516.679C131.048 517.32 131.145 517.797 131.341 518.109C131.536 518.429 131.86 518.679 132.313 518.859L133.356 519.258L146.071 514.816V518.461L138.184 520.816Z" fill="white"/>
<path d="M238.391 616.827L224.816 627.471V596.876C224.816 593.2 221.011 590.22 216.314 590.22H52.272C47.5777 590.22 43.7708 593.2 43.7708 596.876V627.451L57.5189 616.478" stroke="white" stroke-width="4"/>
<rect x="179.391" y="654.427" width="114.035" height="34.5365" rx="7.5" transform="rotate(90 179.391 654.427)" stroke="white" stroke-width="5"/>
<rect x="242.391" y="654.427" width="114.035" height="34.5365" rx="7.5" transform="rotate(90 242.391 654.427)" stroke="white" stroke-width="5"/>
<rect x="116.391" y="654.427" width="114.035" height="34.5365" rx="7.5" transform="rotate(90 116.391 654.427)" stroke="white" stroke-width="5"/>
<path d="M167.606 685.763V680.536H153.391V677.021H167.606V671.864H170.454V685.763H167.606ZM159.848 684.591C161.106 684.591 162.227 684.833 163.212 685.317C164.196 685.802 164.958 686.497 165.497 687.403C166.036 688.317 166.305 689.376 166.305 690.579C166.305 692.29 165.782 693.685 164.735 694.763C163.688 695.849 162.266 696.454 160.469 696.579L159.602 696.603C157.657 696.603 156.094 696.06 154.915 694.974C153.743 693.888 153.157 692.431 153.157 690.603C153.157 688.774 153.743 687.313 154.915 686.22C156.087 685.134 157.68 684.591 159.696 684.591H159.848ZM159.602 687.978C158.399 687.978 157.477 688.204 156.837 688.657C156.204 689.11 155.887 689.759 155.887 690.603C155.887 691.423 156.2 692.063 156.825 692.524C157.458 692.985 158.466 693.216 159.848 693.216C161.028 693.216 161.942 692.985 162.591 692.524C163.239 692.063 163.563 691.415 163.563 690.579C163.563 689.751 163.239 689.11 162.591 688.657C161.95 688.204 160.954 687.978 159.602 687.978ZM158.477 703.294L157.258 702.075H153.391V698.688H171.391V702.075H161.419L162.262 702.731L166.071 705.978V710.044L160.786 705.462L153.391 710.442V706.552L158.477 703.294ZM153.157 717.11C153.157 715.251 153.727 713.735 154.868 712.563C156.008 711.399 157.528 710.817 159.426 710.817H159.755C161.028 710.817 162.165 711.063 163.165 711.556C164.173 712.048 164.946 712.743 165.485 713.642C166.032 714.548 166.305 715.579 166.305 716.735C166.305 718.47 165.758 719.833 164.665 720.825C163.571 721.825 162.02 722.325 160.012 722.325H158.63V714.251C157.801 714.36 157.137 714.688 156.637 715.235C156.137 715.79 155.887 716.489 155.887 717.333C155.887 718.638 156.36 719.657 157.305 720.392L155.442 722.056C154.723 721.548 154.161 720.86 153.755 719.993C153.356 719.126 153.157 718.165 153.157 717.11ZM163.563 716.724C163.563 716.052 163.337 715.505 162.883 715.083C162.43 714.669 161.782 714.403 160.938 714.286V718.997H161.208C161.958 718.981 162.536 718.778 162.942 718.388C163.356 717.997 163.563 717.442 163.563 716.724ZM166.071 727.376L164.606 727.481C165.739 728.388 166.305 729.603 166.305 731.126C166.305 732.47 165.911 733.47 165.122 734.126C164.333 734.782 163.153 735.118 161.583 735.134H153.391V731.747H161.501C162.219 731.747 162.739 731.591 163.059 731.278C163.387 730.966 163.551 730.446 163.551 729.72C163.551 728.767 163.145 728.052 162.333 727.575H153.391V724.188H166.071V727.376ZM153.391 755.243V743.548H155.712L161.594 749.067C162.423 749.825 163.145 750.384 163.762 750.743C164.38 751.11 164.966 751.294 165.52 751.294C166.278 751.294 166.872 751.103 167.301 750.72C167.739 750.337 167.958 749.79 167.958 749.079C167.958 748.313 167.692 747.708 167.161 747.263C166.637 746.825 165.946 746.606 165.087 746.606V743.208C166.126 743.208 167.075 743.454 167.934 743.946C168.794 744.446 169.466 745.149 169.95 746.056C170.442 746.962 170.688 747.989 170.688 749.138C170.688 750.896 170.266 752.259 169.423 753.228C168.579 754.204 167.387 754.692 165.848 754.692C165.005 754.692 164.145 754.474 163.27 754.036C162.395 753.599 161.376 752.849 160.212 751.786L156.122 747.907V755.243H153.391Z" fill="white"/>
<path d="M230.606 685.763V680.536H216.391V677.021H230.606V671.864H233.454V685.763H230.606ZM222.848 684.591C224.106 684.591 225.227 684.833 226.212 685.317C227.196 685.802 227.958 686.497 228.497 687.403C229.036 688.317 229.305 689.376 229.305 690.579C229.305 692.29 228.782 693.685 227.735 694.763C226.688 695.849 225.266 696.454 223.469 696.579L222.602 696.603C220.657 696.603 219.094 696.06 217.915 694.974C216.743 693.888 216.157 692.431 216.157 690.603C216.157 688.774 216.743 687.313 217.915 686.22C219.087 685.134 220.68 684.591 222.696 684.591H222.848ZM222.602 687.978C221.399 687.978 220.477 688.204 219.837 688.657C219.204 689.11 218.887 689.759 218.887 690.603C218.887 691.423 219.2 692.063 219.825 692.524C220.458 692.985 221.466 693.216 222.848 693.216C224.028 693.216 224.942 692.985 225.591 692.524C226.239 692.063 226.563 691.415 226.563 690.579C226.563 689.751 226.239 689.11 225.591 688.657C224.95 688.204 223.954 687.978 222.602 687.978ZM221.477 703.294L220.258 702.075H216.391V698.688H234.391V702.075H224.419L225.262 702.731L229.071 705.978V710.044L223.786 705.462L216.391 710.442V706.552L221.477 703.294ZM216.157 717.11C216.157 715.251 216.727 713.735 217.868 712.563C219.008 711.399 220.528 710.817 222.426 710.817H222.755C224.028 710.817 225.165 711.063 226.165 711.556C227.173 712.048 227.946 712.743 228.485 713.642C229.032 714.548 229.305 715.579 229.305 716.735C229.305 718.47 228.758 719.833 227.665 720.825C226.571 721.825 225.02 722.325 223.012 722.325H221.63V714.251C220.801 714.36 220.137 714.688 219.637 715.235C219.137 715.79 218.887 716.489 218.887 717.333C218.887 718.638 219.36 719.657 220.305 720.392L218.442 722.056C217.723 721.548 217.161 720.86 216.755 719.993C216.356 719.126 216.157 718.165 216.157 717.11ZM226.563 716.724C226.563 716.052 226.337 715.505 225.883 715.083C225.43 714.669 224.782 714.403 223.938 714.286V718.997H224.208C224.958 718.981 225.536 718.778 225.942 718.388C226.356 717.997 226.563 717.442 226.563 716.724ZM229.071 727.376L227.606 727.481C228.739 728.388 229.305 729.603 229.305 731.126C229.305 732.47 228.911 733.47 228.122 734.126C227.333 734.782 226.153 735.118 224.583 735.134H216.391V731.747H224.501C225.219 731.747 225.739 731.591 226.059 731.278C226.387 730.966 226.551 730.446 226.551 729.72C226.551 728.767 226.145 728.052 225.333 727.575H216.391V724.188H229.071V727.376ZM216.391 751.774V748.388H229.446L228.192 744.345H230.946L233.477 751.411V751.774H216.391Z" fill="white"/>
<path d="M104.606 685.763V680.536H90.3913V677.021H104.606V671.864H107.454V685.763H104.606ZM96.8483 684.591C98.1061 684.591 99.2272 684.833 100.212 685.317C101.196 685.802 101.958 686.497 102.497 687.403C103.036 688.317 103.305 689.376 103.305 690.579C103.305 692.29 102.782 693.685 101.735 694.763C100.688 695.849 99.2663 696.454 97.4694 696.579L96.6022 696.603C94.6569 696.603 93.0944 696.06 91.9147 694.974C90.7429 693.888 90.1569 692.431 90.1569 690.603C90.1569 688.774 90.7429 687.313 91.9147 686.22C93.0866 685.134 94.6804 684.591 96.696 684.591H96.8483ZM96.6022 687.978C95.3991 687.978 94.4772 688.204 93.8366 688.657C93.2038 689.11 92.8874 689.759 92.8874 690.603C92.8874 691.423 93.1999 692.063 93.8249 692.524C94.4577 692.985 95.4655 693.216 96.8483 693.216C98.028 693.216 98.9421 692.985 99.5905 692.524C100.239 692.063 100.563 691.415 100.563 690.579C100.563 689.751 100.239 689.11 99.5905 688.657C98.9499 688.204 97.9538 687.978 96.6022 687.978ZM95.4772 703.294L94.2585 702.075H90.3913V698.688H108.391V702.075H98.4186L99.2624 702.731L103.071 705.978V710.044L97.7858 705.462L90.3913 710.442V706.552L95.4772 703.294ZM90.1569 717.11C90.1569 715.251 90.7272 713.735 91.8679 712.563C93.0085 711.399 94.528 710.817 96.4265 710.817H96.7546C98.028 710.817 99.1647 711.063 100.165 711.556C101.173 712.048 101.946 712.743 102.485 713.642C103.032 714.548 103.305 715.579 103.305 716.735C103.305 718.47 102.758 719.833 101.665 720.825C100.571 721.825 99.0202 722.325 97.0124 722.325H95.6296V714.251C94.8015 714.36 94.1374 714.688 93.6374 715.235C93.1374 715.79 92.8874 716.489 92.8874 717.333C92.8874 718.638 93.36 719.657 94.3054 720.392L92.4421 722.056C91.7233 721.548 91.1608 720.86 90.7546 719.993C90.3561 719.126 90.1569 718.165 90.1569 717.11ZM100.563 716.724C100.563 716.052 100.337 715.505 99.8835 715.083C99.4304 714.669 98.7819 714.403 97.9382 714.286V718.997H98.2077C98.9577 718.981 99.5358 718.778 99.9421 718.388C100.356 717.997 100.563 717.442 100.563 716.724ZM103.071 727.376L101.606 727.481C102.739 728.388 103.305 729.603 103.305 731.126C103.305 732.47 102.911 733.47 102.122 734.126C101.333 734.782 100.153 735.118 98.5827 735.134H90.3913V731.747H98.5007C99.2194 731.747 99.739 731.591 100.059 731.278C100.387 730.966 100.551 730.446 100.551 729.72C100.551 728.767 100.145 728.052 99.3327 727.575H90.3913V724.188H103.071V727.376ZM100.423 746.993V748.798C100.423 749.657 100.637 750.294 101.067 750.708C101.497 751.122 102.067 751.329 102.778 751.329C103.466 751.329 104.001 751.122 104.383 750.708C104.766 750.302 104.958 749.739 104.958 749.021C104.958 748.372 104.778 747.829 104.419 747.392C104.067 746.954 103.606 746.735 103.036 746.735V743.349C103.926 743.349 104.723 743.587 105.426 744.063C106.137 744.548 106.692 745.22 107.091 746.079C107.489 746.946 107.688 747.899 107.688 748.938C107.688 750.743 107.255 752.157 106.387 753.181C105.528 754.204 104.341 754.716 102.825 754.716C102.044 754.716 101.325 754.478 100.669 754.001C100.012 753.524 99.5085 752.899 99.1569 752.126C98.8132 753.087 98.2975 753.802 97.61 754.271C96.9225 754.747 96.11 754.985 95.1725 754.985C93.6569 754.985 92.4421 754.431 91.528 753.321C90.614 752.22 90.1569 750.759 90.1569 748.938C90.1569 747.235 90.6061 745.841 91.5046 744.755C92.403 743.677 93.5905 743.138 95.0671 743.138V746.524C94.4265 746.524 93.903 746.763 93.4968 747.239C93.0905 747.724 92.8874 748.317 92.8874 749.021C92.8874 749.825 93.0983 750.454 93.5202 750.907C93.9499 751.368 94.5163 751.599 95.2194 751.599C96.9225 751.599 97.7741 750.661 97.7741 748.786V746.993H100.423Z" fill="white"/>
<path d="M62.8312 693.721C62.8312 694.26 62.6515 694.698 62.2921 695.034C61.9249 695.37 61.4679 695.538 60.921 695.538C60.3663 695.538 59.9093 695.37 59.5499 695.034C59.1827 694.698 58.9991 694.26 58.9991 693.721C58.9991 693.19 59.1788 692.757 59.5382 692.421C59.8976 692.093 60.3585 691.928 60.921 691.928C61.4757 691.928 61.9327 692.093 62.2921 692.421C62.6515 692.757 62.8312 693.19 62.8312 693.721ZM55.8468 693.721C55.8468 694.26 55.6671 694.698 55.3077 695.034C54.9406 695.37 54.4835 695.538 53.9366 695.538C53.382 695.538 52.9249 695.37 52.5656 695.034C52.1984 694.698 52.0148 694.26 52.0148 693.721C52.0148 693.19 52.1945 692.757 52.5538 692.421C52.9132 692.093 53.3741 691.928 53.9366 691.928C54.4913 691.928 54.9484 692.093 55.3077 692.421C55.6671 692.757 55.8468 693.19 55.8468 693.721ZM48.8624 693.721C48.8624 694.26 48.6827 694.698 48.3234 695.034C47.9562 695.37 47.4991 695.538 46.9523 695.538C46.3976 695.538 45.9406 695.37 45.5812 695.034C45.214 694.698 45.0304 694.26 45.0304 693.721C45.0304 693.19 45.2101 692.757 45.5695 692.421C45.9288 692.093 46.3898 691.928 46.9523 691.928C47.507 691.928 47.964 692.093 48.3234 692.421C48.6827 692.757 48.8624 693.19 48.8624 693.721ZM41.8781 693.721C41.8781 694.26 41.6984 694.698 41.339 695.034C40.9718 695.37 40.5148 695.538 39.9679 695.538C39.4132 695.538 38.9562 695.37 38.5968 695.034C38.2296 694.698 38.046 694.26 38.046 693.721C38.046 693.19 38.2257 692.757 38.5851 692.421C38.9445 692.093 39.4054 691.928 39.9679 691.928C40.5226 691.928 40.9796 692.093 41.339 692.421C41.6984 692.757 41.8781 693.19 41.8781 693.721ZM34.8937 693.721C34.8937 694.26 34.714 694.698 34.3546 695.034C33.9874 695.37 33.5304 695.538 32.9835 695.538C32.4288 695.538 31.9718 695.37 31.6124 695.034C31.2452 694.698 31.0616 694.26 31.0616 693.721C31.0616 693.19 31.2413 692.757 31.6007 692.421C31.9601 692.093 32.421 691.928 32.9835 691.928C33.5382 691.928 33.9952 692.093 34.3546 692.421C34.714 692.757 34.8937 693.19 34.8937 693.721ZM27.9093 693.721C27.9093 694.26 27.7296 694.698 27.3702 695.034C27.0031 695.37 26.546 695.538 25.9991 695.538C25.4445 695.538 24.9874 695.37 24.6281 695.034C24.2609 694.698 24.0773 694.26 24.0773 693.721C24.0773 693.19 24.257 692.757 24.6163 692.421C24.9757 692.093 25.4366 691.928 25.9991 691.928C26.5538 691.928 27.0109 692.093 27.3702 692.421C27.7296 692.757 27.9093 693.19 27.9093 693.721Z" fill="white"/>
<path d="M181.391 617.013L167.535 627.471V596.876C167.535 593.2 163.804 590.22 159.136 590.22H108.835C104.166 590.22 100.383 593.2 100.383 596.876V627.471L113.815 617.013" stroke="white" stroke-width="4"/>
<rect x="162.391" y="356.715" width="186.403" height="42" rx="8.5" transform="rotate(90 162.391 356.715)" stroke="white" stroke-width="3" stroke-dasharray="10"/>
<rect x="186.391" y="647.727" width="126.273" height="49.1481" rx="8.5" transform="rotate(90 186.391 647.727)" stroke="white" stroke-width="3" stroke-dasharray="10"/>
<rect x="249.391" y="647.727" width="126.273" height="49.1481" rx="8.5" transform="rotate(90 249.391 647.727)" stroke="white" stroke-width="3" stroke-dasharray="10"/>
<rect x="123.391" y="647.727" width="126.273" height="49.1481" rx="8.5" transform="rotate(90 123.391 647.727)" stroke="white" stroke-width="3" stroke-dasharray="10"/>
<path fill-rule="evenodd" clip-rule="evenodd" d="M82.3913 30.5776V61.5091C82.3913 64.0372 78.9885 66.0867 74.7909 66.0867H62.9917C58.7941 66.0867 55.3913 64.0372 55.3913 61.5091V30.5776C55.3913 28.0495 58.7941 26 62.9917 26H74.7909C78.9885 26 82.3913 28.0495 82.3913 30.5776Z" stroke="white" stroke-width="3" stroke-dasharray="10"/>
<path d="M65.946 98.8796C64.1257 98.7078 62.7038 98.0359 61.6804 96.864C60.6647 95.6921 60.1569 94.1335 60.1569 92.1882C60.1569 90.8289 60.4772 89.6296 61.1179 88.5906C61.7663 87.5593 62.6843 86.7625 63.8718 86.2C65.0593 85.6375 66.4382 85.3445 68.0085 85.321H69.6022C71.2116 85.321 72.6296 85.6062 73.8561 86.1765C75.0827 86.7468 76.028 87.5632 76.6921 88.6257C77.3561 89.696 77.6882 90.9304 77.6882 92.3289C77.6882 94.2117 77.1765 95.7273 76.153 96.8757C75.1296 98.0242 73.6843 98.6921 71.8171 98.8796V95.9265C73.0436 95.7859 73.9265 95.4265 74.4655 94.8484C75.0124 94.2781 75.2858 93.4382 75.2858 92.3289C75.2858 91.0398 74.8132 90.0476 73.8679 89.3523C72.9304 88.6648 71.5515 88.3132 69.7311 88.2976H68.2194C66.3757 88.2976 64.9694 88.6257 64.0007 89.282C63.0319 89.946 62.5475 90.9148 62.5475 92.1882C62.5475 93.3523 62.8093 94.2273 63.3327 94.8132C63.8561 95.3992 64.7272 95.7703 65.946 95.9265V98.8796ZM60.3913 108.841C60.6335 108.716 61.028 108.606 61.5749 108.512C60.6296 107.606 60.1569 106.497 60.1569 105.184C60.1569 103.911 60.5202 102.872 61.2468 102.067C61.9733 101.262 62.8718 100.86 63.9421 100.86C65.2936 100.86 66.3288 101.36 67.0475 102.36C67.7741 103.368 68.1374 104.805 68.1374 106.673V108.419H68.9694C69.6257 108.419 70.1491 108.235 70.5397 107.868C70.9382 107.501 71.1374 106.942 71.1374 106.192C71.1374 105.544 70.9733 105.012 70.6452 104.598C70.3249 104.184 69.9147 103.977 69.4147 103.977V101.13C70.11 101.13 70.7585 101.36 71.36 101.821C71.9694 102.282 72.446 102.907 72.7897 103.696C73.1335 104.493 73.3054 105.38 73.3054 106.356C73.3054 107.841 72.9304 109.024 72.1804 109.907C71.4382 110.79 70.3913 111.243 69.0397 111.266H63.321C62.1804 111.266 61.2702 111.427 60.5905 111.747H60.3913V108.841ZM62.4421 105.712C62.4421 106.274 62.5788 106.802 62.8522 107.294C63.1257 107.794 63.4929 108.169 63.9538 108.419H66.3444V106.884C66.3444 105.829 66.1608 105.036 65.7936 104.505C65.4265 103.973 64.9069 103.708 64.235 103.708C63.6882 103.708 63.2507 103.887 62.9225 104.247C62.6022 104.614 62.4421 105.102 62.4421 105.712ZM73.071 116.891L71.6061 116.973C72.739 117.911 73.3054 119.141 73.3054 120.665C73.3054 123.305 71.7936 124.649 68.7702 124.696H60.3913V121.848H68.6061C69.4108 121.848 70.0046 121.673 70.3874 121.321C70.778 120.977 70.9733 120.411 70.9733 119.622C70.9733 118.473 70.4538 117.618 69.4147 117.055H60.3913V114.208H73.071V116.891ZM60.3913 130.637V127.79H73.071V130.637H60.3913ZM76.364 127.614C76.8015 127.614 77.1647 127.751 77.4538 128.024C77.7429 128.305 77.8874 128.704 77.8874 129.219C77.8874 129.735 77.7429 130.134 77.4538 130.415C77.1647 130.696 76.8015 130.837 76.364 130.837C75.9343 130.837 75.5749 130.696 75.2858 130.415C75.0046 130.134 74.864 129.735 74.864 129.219C74.864 128.704 75.0046 128.305 75.2858 128.024C75.5749 127.751 75.9343 127.614 76.364 127.614ZM63.8366 140.856C64.3444 140.856 64.7311 140.645 64.9968 140.223C65.2624 139.809 65.4968 139.118 65.6999 138.149C65.903 137.18 66.1608 136.372 66.4733 135.723C67.1608 134.302 68.1569 133.591 69.4616 133.591C70.5554 133.591 71.4694 134.052 72.2038 134.973C72.9382 135.895 73.3054 137.067 73.3054 138.489C73.3054 140.005 72.9304 141.227 72.1804 142.157C71.4304 143.094 70.4577 143.563 69.2624 143.563V140.716C69.8093 140.716 70.2624 140.512 70.6218 140.106C70.989 139.7 71.1725 139.161 71.1725 138.489C71.1725 137.864 71.028 137.352 70.739 136.954C70.4499 136.563 70.0632 136.368 69.5788 136.368C69.1413 136.368 68.8015 136.552 68.5593 136.919C68.3171 137.286 68.071 138.028 67.821 139.145C67.5788 140.262 67.2858 141.137 66.9421 141.77C66.6061 142.411 66.1999 142.884 65.7233 143.188C65.2468 143.501 64.6686 143.657 63.989 143.657C62.8483 143.657 61.9225 143.184 61.2116 142.239C60.5085 141.294 60.1569 140.055 60.1569 138.524C60.1569 137.485 60.3444 136.559 60.7194 135.747C61.0944 134.934 61.61 134.302 62.2663 133.848C62.9225 133.395 63.6296 133.169 64.3874 133.169V135.934C63.7155 135.973 63.196 136.227 62.8288 136.696C62.4694 137.165 62.2897 137.786 62.2897 138.559C62.2897 139.309 62.4304 139.88 62.7116 140.27C63.0007 140.661 63.3757 140.856 63.8366 140.856ZM76.153 149.716H73.071V151.954H70.9616V149.716H63.8835C63.3991 149.716 63.0475 149.809 62.8288 149.997C62.6179 150.192 62.5124 150.536 62.5124 151.028C62.5124 151.356 62.5515 151.688 62.6296 152.024H60.4265C60.2468 151.376 60.1569 150.751 60.1569 150.149C60.1569 147.962 61.364 146.868 63.778 146.868H70.9616V144.782H73.071V146.868H76.153V149.716ZM60.1569 159.723C60.1569 157.919 60.7233 156.454 61.8561 155.329C62.9968 154.212 64.5124 153.653 66.403 153.653H66.7546C68.0202 153.653 69.1491 153.895 70.1413 154.38C71.1413 154.872 71.9186 155.559 72.4733 156.442C73.028 157.325 73.3054 158.309 73.3054 159.395C73.3054 161.122 72.7546 162.454 71.653 163.391C70.5515 164.337 68.9929 164.809 66.9772 164.809H65.8288V156.524C64.7819 156.61 63.9538 156.958 63.3444 157.567C62.735 158.184 62.4304 158.958 62.4304 159.887C62.4304 161.192 62.9577 162.255 64.0124 163.075L62.5475 164.61C61.7897 164.102 61.1999 163.423 60.778 162.571C60.364 161.727 60.1569 160.778 60.1569 159.723ZM71.0202 159.384C71.0202 158.602 70.7468 157.969 70.1999 157.485C69.653 157.009 68.8913 156.704 67.9147 156.571V161.997H68.1257C69.0788 161.934 69.7975 161.68 70.2819 161.235C70.7741 160.79 71.0202 160.173 71.0202 159.384ZM70.4694 173.669C70.5319 173.294 70.5632 172.907 70.5632 172.509C70.5632 171.204 70.0632 170.325 69.0632 169.872H60.3913V167.024H73.071V169.743L71.653 169.813C72.7546 170.501 73.3054 171.454 73.3054 172.673C73.3054 173.079 73.2507 173.415 73.1413 173.68L70.4694 173.669Z" fill="white"/>
</g>
<rect x="272" y="2" width="795" height="270" rx="18" transform="rotate(90 272 2)" stroke="white" stroke-width="4"/>
<defs>
<clipPath id="clip0">
<rect width="748" height="227.084" fill="white" transform="translate(249.391 26) rotate(90)"/>
</clipPath>
</defs>
</svg>
