<svg width="35" height="33" viewBox="0 0 35 33" fill="none" xmlns="http://www.w3.org/2000/svg">
<path fill-rule="evenodd" clip-rule="evenodd" d="M11.9461 32.3529L1.64703 22.0539C0.784287 21.1912 0.784287 19.7353 1.64703 18.8725L19.8725 0.647059C20.7353 -0.215686 22.1911 -0.215686 23.0539 0.647059L33.3529 10.9461C34.2157 11.8088 34.2157 13.2647 33.3529 14.1275L15.1274 32.3529C14.2647 33.2157 12.8088 33.2157 11.9461 32.3529ZM6.01468 19.3039L14.6961 27.9853L30.1715 12.5098L21.4902 3.88235L6.01468 19.3039ZM6.28512 1.4154L12.4047 2.86723C12.9237 2.96776 13.0806 3.64768 12.6703 4.01786L7.80654 8.00538C7.43642 8.31118 6.84096 8.11812 6.73229 7.64741L6.49079 6.60138C6.24136 6.71406 6.004 6.87903 5.76665 7.04401C5.39653 7.34981 5.0385 7.70792 4.79714 8.09417C4.55578 8.48043 4.33856 8.97129 4.27826 9.42593C4.1898 9.99724 4.15364 10.5565 4.28647 11.1318C4.49174 12.0209 3.98086 12.9101 3.09174 13.1154L2.98714 13.1395C2.09801 13.3448 1.26112 12.8219 1.05585 11.9327C0.92303 11.3574 0.854584 10.8223 0.878666 10.2108C0.902681 8.8831 1.25258 7.53527 2.01689 6.31213C2.78119 5.08898 3.83923 4.18364 5.02202 3.58004C5.27145 3.46737 5.52088 3.35469 5.78239 3.29432L5.52882 2.19599C5.36784 1.73735 5.81841 1.30279 6.28512 1.4154ZM29.3766 31.5846L23.2571 30.1328C22.7381 30.0322 22.5811 29.3523 22.9915 28.9821L27.8552 24.9946C28.2253 24.6888 28.8208 24.8819 28.9295 25.3526L29.171 26.3986C29.4204 26.2859 29.6577 26.121 29.8951 25.956C30.2652 25.6502 30.6233 25.2921 30.8646 24.9058C31.1462 24.4552 31.3232 24.0287 31.3835 23.5741C31.4719 23.0028 31.5081 22.4435 31.3753 21.8682C31.17 20.9791 31.6809 20.0899 32.57 19.8846L32.6746 19.8605C33.5637 19.6552 34.4006 20.1781 34.6059 21.0673C34.7387 21.6426 34.8072 22.1777 34.7831 22.7892C34.7591 24.1169 34.4092 25.4647 33.6449 26.6879C32.8806 27.911 31.8225 28.8164 30.6397 29.42C30.3903 29.5326 30.1409 29.6453 29.8794 29.7057L30.1329 30.804C30.2939 31.2627 29.8433 31.6972 29.3766 31.5846Z" fill="#fff"/>
</svg>
